<svg enable-background="new 0 0 665 276" viewBox="0 0 665 276" xmlns="http://www.w3.org/2000/svg" xmlns:xlink="http://www.w3.org/1999/xlink"><clipPath id="a"><path d="m237 64.8c-7.3 19.7-11.9 46.5-11.9 74.8 0 9.3.3 17.8.9 25.7.2 3.5.5 6.8.8 10.1 11.6-15.5 21.8-33.9 29.5-52.4 9.4-22.5 15-45.2 15-63.1 0-2-.1-8.9-1.9-15.1-1.5-5-4.1-9.6-9-9.6-8.4.2-16.8 11.7-23.4 29.6m-98.7-2.6c-5.3 16.4-9 38.7-9.3 63.7 0 5.4.1 10.4.3 15.2 7.1-13.6 13.1-27.6 17.6-41.1 6.1-17.9 9.5-34.7 9.5-47.8.1-33.8-13-5.7-18.1 10zm131.5 199.5c-2.4 2.3-5.7 3.6-9 3.6h-1.7l-.9-.1c-13.1-2.2-23.4-8.4-31.4-17.2-6.4-7-11.3-15.7-15.1-25.3-5.2 3.4-10.6 6.2-16.2 8.4-7.8 3.1-16 4.8-24.5 4.8-14.9 0-26.4-5-35-11.8-9.2-7.2-15-16.6-18.4-24.2-7.2 7.8-15.3 15-24.1 20.4-9.7 5.9-20.2 9.6-31.3 9.6-6.8 0-13.2-1.2-19.2-3.6-5.8-2.4-11.1-5.9-15.7-10.7-9-9.4-14.6-21.4-17.9-34.3-3.2-12.6-4.3-26-4.3-38.6 0-22.5 3.3-46.4 8.8-68 5.6-21.9 13.6-41.6 22.8-55 2.3-3.5 6.8-5.3 10.7-5.3 3.5 0 6.5 1.4 8.8 3.7 2.1 2.2 3.4 5.3 3.4 8.8 0 1.2-.1 2.4-.4 3.5-.2 1.1-.7 2.2-1.2 3.2l-.4.7c-7.7 10.9-14.5 27.9-19.3 47.2-4.9 19.4-7.8 41-7.8 61.3 0 16.4 2.3 35.2 9.4 48.1 4.9 8.9 12.2 15 22.9 15 10.3 0 20.7-7.1 29.1-15 7.4-7 13.3-14.7 16.5-18.9-1.5-5.2-2.6-11.3-3.4-18-.9-7.6-1.4-15.9-1.4-24.6 0-29.2 4.7-60.1 13.9-82.5 8.4-20.5 20.8-34.2 37.1-34.2 3.2 0 6.2.6 9 1.6 3 1.1 5.7 2.7 8 4.6l.5.5c6.3 6.7 9.5 17.2 9.5 33 0 17.9-5 40.8-13.7 63.8-8 21.4-19.1 43-32.1 60.8 1.2 4.7 2.8 9 4.8 12.9 2.2 4.4 4.9 8.3 8 11.8 3.2 3.2 6.8 5.7 10.8 7.4 3.8 1.6 8 2.5 12.6 2.5 5.8 0 11.5-1.4 17-4 5.3-2.5 10.5-6 15.4-10.4-1.5-7.3-2.7-15.5-3.4-23.9-1-11.4-1.4-23-1.4-33.5 0-33.8 6-66.7 16.8-90.5 10.4-23 25.5-37.8 44.2-37.8 10.6 0 20 4.7 26.6 14 5.6 8.1 9 19.6 9 34.6 0 22.2-7.5 52.2-20.3 80.7-11 24.5-26 48-43.6 64.6 3 10.3 7 18.4 12 24.3 5.1 6.1 11.3 9.8 18.7 11.2 2.8.6 5.5 2 7.4 4.2 1.9 2.1 3.1 4.8 3.1 7.9.1 3.4-1.4 6.5-3.7 8.7z"/></clipPath><g fill="#3bb182"><path d="m443.2 123h-25.1c-2.7 12.2-8.3 22-16.9 29.3-9.1 7.8-20.3 11.7-33.5 11.7h-.3c-16.1 0-28.9-5.5-38.5-16.4-9.1-10.3-13.7-23.5-13.7-39.4v-14.3c0-5.7 1-9.5 3-11.5s5.5-3 10.5-3c2.9 0 6.2.8 9.9 2.3-2.7 7-4 15.8-4 26.5 0 11.7 2.6 21.5 7.9 29.5 6 8.9 14.3 13.3 25 13.3 10.5 0 18.8-4.5 24.8-13.5 5.3-7.8 7.9-17.6 7.9-29.3v-83.8c0-5.6 1-9.4 3.1-11.4 2-2 5.5-3 10.5-3 3 0 6.4.8 10.1 2.3-2.8 7-4.3 15.8-4.3 26.5v71.2h23.6z"/><path d="m529.2 40.8c11.9 0 21.4 4 28.5 11.9 6.6 7.5 10 17.2 10 29s-3.3 21.5-9.8 29.2c-7.1 8-16.6 12-28.5 12.1h-88.2v-13h19v-54.7c0-5.7 1-9.5 3.1-11.5 2-2 5.5-3 10.5-3 2.9 0 6.2.8 10 2.3-2.7 6.9-4 15.5-4 26 3.5-4 7.1-7.5 10.8-10.8 6.2-5.4 12.5-9.7 19-12.7 6.6-3 13.2-4.6 19.6-4.8zm.2 69.2c12.6 0 18.8-9.4 18.8-28.2 0-8.3-1.5-14.9-4.5-19.8-3.2-5.5-8.1-8.3-14.5-8.3-4.4 0-9.4 1.4-15.2 4.2-12.2 5.9-23.7 16.6-34.4 32.1v20z"/><path d="m618.9 40.8c12 0 21.5 4 28.5 11.9 6.8 7.6 10.1 17.3 10.1 29.2v41.1c-.1 11.8-3.5 21.4-10.1 28.8-7 8.1-16.4 12.2-28.3 12.2h-12.3c-7.1 0-11.5-2-13.3-6.1-.3-.7-.4-1.4-.4-2.1 0-2.7 1.7-5.7 5-9.1 2.7 2.9 6.5 4.4 11.4 4.4h9.6c12.7 0 19.1-9.3 19.2-28h-19.2c-11.9 0-21.3-4-28.3-12.1-6.8-7.7-10.1-17.4-10.1-29.1 0-11.8 3.4-21.5 10.1-29.2 6.9-7.9 16.3-11.9 28.1-11.9zm19.2 41.1c0-8.3-1.5-14.9-4.5-19.8-3.4-5.5-8.3-8.3-14.7-8.3-6.2 0-11.1 2.8-14.6 8.3-3 5-4.5 11.7-4.5 19.8 0 8.3 1.5 15 4.5 19.9 3.3 5.5 8.2 8.2 14.6 8.2h19.2z"/><path d="m421.3 189.2c5.9 0 8.9 2.1 8.9 6.3 0 7.2-2.6 18-7.9 32.6s-10.6 25.2-16 32c-3.5 4.2-7.5 6.3-11.9 6.3-3.1 0-5.6-.2-7.3-.6-2.2-11.2-5.2-22.7-9-34.5-5.1 13-10.1 22.6-15.1 28.8-3.3 4.2-7.2 6.3-11.7 6.3-3.2 0-5.7-.2-7.4-.6-2.4-12.4-6.4-26.3-11.9-41.7-5.5-15.5-10.1-25.1-14-28.8 4.6-3.6 8.8-5.4 12.5-5.4 3.6 0 6.2 1.8 8 5.6 1.9 3.7 4.8 11.1 8.6 22.3s7 21.2 9.6 30.1c3.1-5.6 6.3-13.7 9.5-24.4s4.8-20 4.8-27.9c0-1.9-.2-3.7-.5-5.2 2.3-.6 4.8-.9 7.6-.9 5.9 0 8.9 2.1 8.9 6.3 0 2.8-.5 6.2-1.5 10.1 6.4 17.1 11.2 31.1 14.3 42 3.4-5.9 6.7-14 9.8-24.4s4.6-19.7 4.6-27.9c0-1.9-.2-3.7-.5-5.2 2.3-.9 4.7-1.2 7.6-1.2z"/><path d="m494.3 217.3c0-3.6-.1-6.4-.2-8.3s-.6-4.1-1.3-6.5-1.9-4.2-3.5-5.3c-1.7-1.1-3.8-1.7-6.6-1.7-3.4 0-6.7 1.1-9.8 3.4s-5.4 5.4-6.8 9.4c-9.4-.1-14.1-2.9-14.1-8.3 0-4.5 3.2-8.3 9.6-11.4s13.6-4.6 21.7-4.6c9.7 0 16.8 2 21.3 6s6.7 11.2 6.7 21.5c0 .3-.1 2.8-.2 7.4s-.2 9.2-.2 13.6c0 12.1 1 21.1 3 27.1-3.1 1.1-6.1 1.7-9 1.7-5.9 0-9.5-2.4-10.6-7.3-6.3 5.5-13.5 8.2-21.4 8.2-6.1 0-11.2-1.9-15.2-5.7-4.1-3.8-6.1-9.4-6.1-16.7 0-5.9 1.3-10.3 3.8-13.2s5.9-5 10.1-6.3c6.5-1.8 16-2.9 28.8-3zm-.6 20.9c0-4.8.1-8.6.3-11.2-3.2.4-5.5.7-6.9.9s-3.3.5-5.8.9-4.2.9-5.3 1.4-2.3 1.2-3.6 1.9c-1.3.8-2.2 1.7-2.7 2.8s-.8 2.4-.8 3.8c0 4.2 1.1 7.3 3.2 9.3s4.8 3 8 3c5.4 0 10-2 13.8-6-.1-1.2-.2-3.5-.2-6.8z"/><path d="m586.8 208.9c-2.1-6.8-8-10.3-17.5-10.3-2.7 0-5.1.8-7.1 2.3s-3 3.6-3 6.2c0 3.2 1.4 5.7 4.2 7.5s6.2 3.1 10.2 3.9 8 1.9 12.1 3 7.4 3.3 10.2 6.5 4.2 7.4 4.2 12.6c0 7.7-3 13.6-9.1 17.7-6.1 4-13.2 6.1-21.4 6.1-7.3 0-13.7-1.2-19.3-3.6s-8.4-5.4-8.4-9c0-4.5 3.3-8.2 9.8-11 3.1 7.4 10 11.1 20.6 11.1 8 0 12-2.7 12-8.1 0-3.1-1.4-5.5-4.2-7.2s-6.2-2.9-10.2-3.6c-4-.8-8-1.8-12-3.1s-7.4-3.6-10.2-7-4.2-7.9-4.2-13.6c0-7.6 3-13.4 9.1-17.3s13.2-5.9 21.4-5.9c3.2 0 6.5.3 9.9 1s6.8 2.1 10 4.2 4.8 4.9 4.8 8.2c0 2.1-1.1 4-3.2 5.6-2.2 1.7-5.1 2.9-8.7 3.8z"/><path d="m634.5 191c7.5 0 11.2 1.9 11.2 5.7 0 .4-.2 2-.5 4.8s-.6 6.8-.8 12.1c-.3 5.2-.4 11.1-.4 17.5 0 13.3.2 21.8.6 25.6s1.6 7.3 3.6 10.4c-3 .9-6.2 1.3-9.3 1.3-4.5 0-7.6-.6-9.2-1.9s-2.4-3.4-2.4-6.5c.2-13 .3-22.5.3-28.6 0-20.9-.5-34.2-1.5-39.9 3.1-.3 5.9-.5 8.4-.5z"/></g><path clip-rule="evenodd" d="m237 64.8c-7.3 19.7-11.9 46.5-11.9 74.8 0 9.3.3 17.8.9 25.7.2 3.5.5 6.8.8 10.1 11.6-15.5 21.8-33.9 29.5-52.4 9.4-22.5 15-45.2 15-63.1 0-2-.1-8.9-1.9-15.1-1.5-5-4.1-9.6-9-9.6-8.4.2-16.8 11.7-23.4 29.6m-98.7-2.6c-5.3 16.4-9 38.7-9.3 63.7 0 5.4.1 10.4.3 15.2 7.1-13.6 13.1-27.6 17.6-41.1 6.1-17.9 9.5-34.7 9.5-47.8.1-33.8-13-5.7-18.1 10zm131.5 199.5c-2.4 2.3-5.7 3.6-9 3.6h-1.7l-.9-.1c-13.1-2.2-23.4-8.4-31.4-17.2-6.4-7-11.3-15.7-15.1-25.3-5.2 3.4-10.6 6.2-16.2 8.4-7.8 3.1-16 4.8-24.5 4.8-14.9 0-26.4-5-35-11.8-9.2-7.2-15-16.6-18.4-24.2-7.2 7.8-15.3 15-24.1 20.4-9.7 5.9-20.2 9.6-31.3 9.6-6.8 0-13.2-1.2-19.2-3.6-5.8-2.4-11.1-5.9-15.7-10.7-9-9.4-14.6-21.4-17.9-34.3-3.2-12.6-4.3-26-4.3-38.6 0-22.5 3.3-46.4 8.8-68 5.6-21.9 13.6-41.6 22.8-55 2.3-3.5 6.8-5.3 10.7-5.3 3.5 0 6.5 1.4 8.8 3.7 2.1 2.2 3.4 5.3 3.4 8.8 0 1.2-.1 2.4-.4 3.5-.2 1.1-.7 2.2-1.2 3.2l-.4.7c-7.7 10.9-14.5 27.9-19.3 47.2-4.9 19.4-7.8 41-7.8 61.3 0 16.4 2.3 35.2 9.4 48.1 4.9 8.9 12.2 15 22.9 15 10.3 0 20.7-7.1 29.1-15 7.4-7 13.3-14.7 16.5-18.9-1.5-5.2-2.6-11.3-3.4-18-.9-7.6-1.4-15.9-1.4-24.6 0-29.2 4.7-60.1 13.9-82.5 8.4-20.5 20.8-34.2 37.1-34.2 3.2 0 6.2.6 9 1.6 3 1.1 5.7 2.7 8 4.6l.5.5c6.3 6.7 9.5 17.2 9.5 33 0 17.9-5 40.8-13.7 63.8-8 21.4-19.1 43-32.1 60.8 1.2 4.7 2.8 9 4.8 12.9 2.2 4.4 4.9 8.3 8 11.8 3.2 3.2 6.8 5.7 10.8 7.4 3.8 1.6 8 2.5 12.6 2.5 5.8 0 11.5-1.4 17-4 5.3-2.5 10.5-6 15.4-10.4-1.5-7.3-2.7-15.5-3.4-23.9-1-11.4-1.4-23-1.4-33.5 0-33.8 6-66.7 16.8-90.5 10.4-23 25.5-37.8 44.2-37.8 10.6 0 20 4.7 26.6 14 5.6 8.1 9 19.6 9 34.6 0 22.2-7.5 52.2-20.3 80.7-11 24.5-26 48-43.6 64.6 3 10.3 7 18.4 12 24.3 5.1 6.1 11.3 9.8 18.7 11.2 2.8.6 5.5 2 7.4 4.2 1.9 2.1 3.1 4.8 3.1 7.9.1 3.4-1.4 6.5-3.7 8.7z" fill="#ed6b32" fill-rule="evenodd"/><path clip-path="url(#a)" d="m5.2 11.3h291.1v254h-291.1z" fill="#ed6b32"/></svg>